<mxfile host="app.diagrams.net" modified="2021-10-14T11:20:24.360Z" agent="5.0 (X11; Linux x86_64) AppleWebKit/537.36 (KHTML, like Gecko) Chrome/94.0.4606.81 Safari/537.36" etag="C3v9HITgqyRZtwR2wYGI" version="15.5.2" type="github">
  <diagram id="_Mf6lnb294Ap30HItGFO" name="Page-1">
    <mxGraphModel dx="2719" dy="868" grid="1" gridSize="8" guides="1" tooltips="1" connect="1" arrows="1" fold="1" page="1" pageScale="1" pageWidth="1100" pageHeight="850" math="0" shadow="0">
      <root>
        <mxCell id="0" />
        <mxCell id="1" parent="0" />
        <mxCell id="dr2jXw1xH-RzFGX_rYgQ-3" value="CNF&amp;nbsp;&amp;nbsp;" style="rounded=0;whiteSpace=wrap;html=1;align=left;verticalAlign=top;labelBorderColor=#9AC7BF;fontSize=18;container=0;fillColor=#ffe6cc;strokeColor=#d79b00;" parent="1" vertex="1">
          <mxGeometry x="720" y="200" width="180" height="60" as="geometry" />
        </mxCell>
        <mxCell id="dr2jXw1xH-RzFGX_rYgQ-4" value="CNF&amp;nbsp;&amp;nbsp;" style="rounded=0;whiteSpace=wrap;html=1;align=left;verticalAlign=top;labelBorderColor=#9AC7BF;fontSize=18;container=0;fillColor=#ffe6cc;strokeColor=#d79b00;" parent="1" vertex="1">
          <mxGeometry x="1380" y="170" width="180" height="60" as="geometry" />
        </mxCell>
        <mxCell id="dr2jXw1xH-RzFGX_rYgQ-26" value="DNAT&amp;nbsp; -d 10.10.70.39:10001 -&amp;gt; 192.169.0.2:80" style="edgeLabel;html=1;align=center;verticalAlign=middle;resizable=0;points=[];fontSize=8;container=0;" parent="1" vertex="1" connectable="0">
          <mxGeometry x="1648.000004916736" y="1488" as="geometry" />
        </mxCell>
        <mxCell id="dr2jXw1xH-RzFGX_rYgQ-24" value="DNAT&amp;nbsp; -d 10.10.70.39:6443 -&amp;gt; 10.96.0.1:443" style="edgeLabel;html=1;align=center;verticalAlign=middle;resizable=0;points=[];fontSize=8;container=0;" parent="1" vertex="1" connectable="0">
          <mxGeometry x="1784.000004916736" y="1464" as="geometry" />
        </mxCell>
        <mxCell id="dr2jXw1xH-RzFGX_rYgQ-25" value="192.169.0.1 == 10.10.70.39" style="edgeLabel;html=1;align=center;verticalAlign=middle;resizable=0;points=[];fontSize=10;container=0;" parent="1" vertex="1" connectable="0">
          <mxGeometry x="824.0000049167361" y="676" as="geometry">
            <mxPoint x="-10" y="2" as="offset" />
          </mxGeometry>
        </mxCell>
        <mxCell id="dr2jXw1xH-RzFGX_rYgQ-49" value="192.169.0.2 == 10.10.70.39" style="edgeLabel;html=1;align=center;verticalAlign=middle;resizable=0;points=[];fontSize=10;container=0;" parent="1" vertex="1" connectable="0">
          <mxGeometry x="824.0000049167361" y="920" as="geometry">
            <mxPoint x="-10" y="2" as="offset" />
          </mxGeometry>
        </mxCell>
        <mxCell id="MFXp9vrlhHnJbVwKKNNt-15" value="" style="group" vertex="1" connectable="0" parent="1">
          <mxGeometry x="200" y="640" width="523" height="408" as="geometry" />
        </mxCell>
        <mxCell id="MFXp9vrlhHnJbVwKKNNt-13" value="Service: &lt;b&gt;hub-extra-cnf&lt;/b&gt;&lt;br style=&quot;font-size: 12px&quot;&gt;app=sdewan-hub-cnf&lt;br&gt;nodePort:30080&lt;br&gt;targertPort: 8080" style="rounded=0;whiteSpace=wrap;html=1;align=left;verticalAlign=top;labelBorderColor=none;fontSize=12;container=0;fillColor=#f8cecc;strokeColor=#b85450;" vertex="1" parent="MFXp9vrlhHnJbVwKKNNt-15">
          <mxGeometry width="176" height="136" as="geometry" />
        </mxCell>
        <mxCell id="MFXp9vrlhHnJbVwKKNNt-9" value="" style="group" vertex="1" connectable="0" parent="MFXp9vrlhHnJbVwKKNNt-15">
          <mxGeometry x="3" y="48" width="520" height="360" as="geometry" />
        </mxCell>
        <mxCell id="MFXp9vrlhHnJbVwKKNNt-25" value="" style="group" vertex="1" connectable="0" parent="MFXp9vrlhHnJbVwKKNNt-9">
          <mxGeometry y="16" width="520" height="344" as="geometry" />
        </mxCell>
        <mxCell id="MFXp9vrlhHnJbVwKKNNt-10" value="Pod: &lt;b&gt;CNF&lt;/b&gt;" style="rounded=0;whiteSpace=wrap;html=1;align=left;verticalAlign=top;labelBorderColor=#9AC7BF;fontSize=12;container=0;fillColor=#b0e3e6;strokeColor=#0e8088;" vertex="1" parent="MFXp9vrlhHnJbVwKKNNt-25">
          <mxGeometry width="170" height="64" as="geometry" />
        </mxCell>
        <mxCell id="MFXp9vrlhHnJbVwKKNNt-11" value="net0: 172.16.70.33/24" style="rounded=0;whiteSpace=wrap;html=1;strokeColor=#82b366;container=0;align=left;fillColor=#FFFF99;fontSize=10;" vertex="1" parent="MFXp9vrlhHnJbVwKKNNt-25">
          <mxGeometry x="63.02371764319171" y="15.134454743852984" width="106.97289365248938" height="23.91096229145962" as="geometry" />
        </mxCell>
        <mxCell id="MFXp9vrlhHnJbVwKKNNt-12" value="net2: 10.10.70.33/24" style="rounded=0;whiteSpace=wrap;html=1;strokeColor=#82b366;container=0;align=left;fillColor=#99FF99;fontSize=10;" vertex="1" parent="MFXp9vrlhHnJbVwKKNNt-25">
          <mxGeometry x="63.02371764319171" y="40.08715064813669" width="106.97289365248938" height="23.91096229145962" as="geometry" />
        </mxCell>
        <mxCell id="MFXp9vrlhHnJbVwKKNNt-69" value="Hub" style="rounded=1;whiteSpace=wrap;fontSize=16;verticalAlign=top;arcSize=3;dashed=1;container=0;fillColor=none;" vertex="1" parent="MFXp9vrlhHnJbVwKKNNt-25">
          <mxGeometry x="-27" y="-104" width="547" height="448" as="geometry" />
        </mxCell>
        <mxCell id="MFXp9vrlhHnJbVwKKNNt-68" style="edgeStyle=orthogonalEdgeStyle;rounded=0;orthogonalLoop=1;jettySize=auto;html=1;exitX=0.5;exitY=0.5;exitDx=0;exitDy=0;exitPerimeter=0;entryX=0;entryY=0.5;entryDx=0;entryDy=0;fontSize=10;startArrow=none;startFill=0;endArrow=classic;endFill=1;strokeColor=#66B2FF;strokeWidth=2;" edge="1" parent="1" source="MFXp9vrlhHnJbVwKKNNt-18" target="MFXp9vrlhHnJbVwKKNNt-13">
          <mxGeometry relative="1" as="geometry" />
        </mxCell>
        <mxCell id="MFXp9vrlhHnJbVwKKNNt-18" value="" style="shape=umlActor;verticalLabelPosition=bottom;verticalAlign=top;html=1;outlineConnect=0;fontSize=10;" vertex="1" parent="1">
          <mxGeometry x="-8" y="694" width="24" height="28" as="geometry" />
        </mxCell>
        <mxCell id="MFXp9vrlhHnJbVwKKNNt-26" value="" style="group" vertex="1" connectable="0" parent="1">
          <mxGeometry x="512" y="664" width="170" height="64" as="geometry" />
        </mxCell>
        <mxCell id="MFXp9vrlhHnJbVwKKNNt-27" value="Pod: &lt;b&gt;CNF&lt;/b&gt;" style="rounded=0;whiteSpace=wrap;html=1;align=left;verticalAlign=top;labelBorderColor=#9AC7BF;fontSize=12;container=0;fillColor=#b0e3e6;strokeColor=#0e8088;" vertex="1" parent="MFXp9vrlhHnJbVwKKNNt-26">
          <mxGeometry width="170" height="64" as="geometry" />
        </mxCell>
        <mxCell id="MFXp9vrlhHnJbVwKKNNt-28" value="net0: 172.16.70.39/24" style="rounded=0;whiteSpace=wrap;html=1;strokeColor=#82b366;container=0;align=left;fillColor=#FFFF99;fontSize=10;" vertex="1" parent="MFXp9vrlhHnJbVwKKNNt-26">
          <mxGeometry x="63.02371764319171" y="15.134454743852984" width="106.97289365248938" height="23.91096229145962" as="geometry" />
        </mxCell>
        <mxCell id="MFXp9vrlhHnJbVwKKNNt-29" value="net2: 10.10.70.39/24" style="rounded=0;whiteSpace=wrap;html=1;strokeColor=#82b366;container=0;align=left;fillColor=#99FF99;fontSize=10;" vertex="1" parent="MFXp9vrlhHnJbVwKKNNt-26">
          <mxGeometry x="63.02371764319171" y="40.08715064813669" width="106.97289365248938" height="23.91096229145962" as="geometry" />
        </mxCell>
        <mxCell id="MFXp9vrlhHnJbVwKKNNt-41" value="" style="group" vertex="1" connectable="0" parent="1">
          <mxGeometry x="864" y="584" width="296" height="208" as="geometry" />
        </mxCell>
        <mxCell id="dr2jXw1xH-RzFGX_rYgQ-10" value="Edge-1" style="rounded=1;whiteSpace=wrap;fontSize=16;verticalAlign=top;arcSize=3;dashed=1;container=0;fillColor=none;" parent="MFXp9vrlhHnJbVwKKNNt-41" vertex="1">
          <mxGeometry width="296" height="208" as="geometry" />
        </mxCell>
        <mxCell id="MFXp9vrlhHnJbVwKKNNt-31" value="" style="group" vertex="1" connectable="0" parent="MFXp9vrlhHnJbVwKKNNt-41">
          <mxGeometry x="16" y="48" width="170" height="64" as="geometry" />
        </mxCell>
        <mxCell id="MFXp9vrlhHnJbVwKKNNt-32" value="Pod: &lt;b&gt;CNF&lt;/b&gt;" style="rounded=0;whiteSpace=wrap;html=1;align=left;verticalAlign=top;labelBorderColor=#9AC7BF;fontSize=12;container=0;fillColor=#b0e3e6;strokeColor=#0e8088;" vertex="1" parent="MFXp9vrlhHnJbVwKKNNt-31">
          <mxGeometry width="170" height="64" as="geometry" />
        </mxCell>
        <mxCell id="MFXp9vrlhHnJbVwKKNNt-33" value="net0: 172.16.70.19/24" style="rounded=0;whiteSpace=wrap;html=1;strokeColor=#82b366;container=0;align=left;fillColor=#FFFF99;fontSize=10;" vertex="1" parent="MFXp9vrlhHnJbVwKKNNt-31">
          <mxGeometry x="63.02371764319171" y="15.134454743852984" width="106.97289365248938" height="23.91096229145962" as="geometry" />
        </mxCell>
        <mxCell id="MFXp9vrlhHnJbVwKKNNt-34" value="net2: 10.10.70.19/24" style="rounded=0;whiteSpace=wrap;html=1;strokeColor=#82b366;container=0;align=left;fillColor=#99FF99;fontSize=10;" vertex="1" parent="MFXp9vrlhHnJbVwKKNNt-31">
          <mxGeometry x="63.02371764319171" y="40.08715064813669" width="106.97289365248938" height="23.91096229145962" as="geometry" />
        </mxCell>
        <mxCell id="MFXp9vrlhHnJbVwKKNNt-35" value="" style="group" vertex="1" connectable="0" parent="MFXp9vrlhHnJbVwKKNNt-41">
          <mxGeometry x="16" y="128" width="208" height="64" as="geometry" />
        </mxCell>
        <mxCell id="MFXp9vrlhHnJbVwKKNNt-36" value="Pod: &lt;b&gt;Hello-Host&lt;/b&gt;" style="rounded=0;whiteSpace=wrap;html=1;align=left;verticalAlign=top;labelBorderColor=#9AC7BF;fontSize=12;container=0;fillColor=#b0e3e6;strokeColor=#0e8088;" vertex="1" parent="MFXp9vrlhHnJbVwKKNNt-35">
          <mxGeometry width="170" height="64" as="geometry" />
        </mxCell>
        <mxCell id="dr2jXw1xH-RzFGX_rYgQ-61" value="App Continer" style="rounded=0;whiteSpace=wrap;html=1;strokeColor=#82b366;container=0;align=left;fillColor=#FFFF99;fontSize=10;" parent="MFXp9vrlhHnJbVwKKNNt-35" vertex="1">
          <mxGeometry x="8" y="32" width="44" height="26" as="geometry" />
        </mxCell>
        <mxCell id="dr2jXw1xH-RzFGX_rYgQ-62" value="Istio&lt;br style=&quot;font-size: 10px;&quot;&gt;proxy" style="rounded=0;whiteSpace=wrap;html=1;strokeColor=#82b366;container=0;align=left;fillColor=#FFFF99;fontSize=10;" parent="MFXp9vrlhHnJbVwKKNNt-35" vertex="1">
          <mxGeometry x="72" y="32" width="36" height="26" as="geometry" />
        </mxCell>
        <mxCell id="dr2jXw1xH-RzFGX_rYgQ-63" style="edgeStyle=orthogonalEdgeStyle;rounded=0;orthogonalLoop=1;jettySize=auto;html=1;exitX=1;exitY=0.5;exitDx=0;exitDy=0;entryX=0;entryY=0.5;entryDx=0;entryDy=0;fontSize=12;strokeColor=#66B2FF;strokeWidth=1;startArrow=classic;startFill=1;shape=link;" parent="MFXp9vrlhHnJbVwKKNNt-35" source="dr2jXw1xH-RzFGX_rYgQ-61" target="dr2jXw1xH-RzFGX_rYgQ-62" edge="1">
          <mxGeometry x="-32" y="-16" as="geometry" />
        </mxCell>
        <mxCell id="dr2jXw1xH-RzFGX_rYgQ-64" value="Istro Ingress" style="rounded=0;whiteSpace=wrap;html=1;strokeColor=#82b366;container=0;align=left;fillColor=#FFB570;fontSize=10;" parent="MFXp9vrlhHnJbVwKKNNt-35" vertex="1">
          <mxGeometry x="144" y="8" width="64" height="14.96" as="geometry" />
        </mxCell>
        <mxCell id="MFXp9vrlhHnJbVwKKNNt-54" style="edgeStyle=orthogonalEdgeStyle;rounded=0;orthogonalLoop=1;jettySize=auto;html=1;exitX=1;exitY=0.75;exitDx=0;exitDy=0;entryX=1;entryY=0.5;entryDx=0;entryDy=0;fontSize=10;startArrow=none;startFill=0;endArrow=classic;endFill=1;strokeColor=#66B2FF;strokeWidth=2;" edge="1" parent="MFXp9vrlhHnJbVwKKNNt-41" source="MFXp9vrlhHnJbVwKKNNt-33" target="dr2jXw1xH-RzFGX_rYgQ-64">
          <mxGeometry relative="1" as="geometry" />
        </mxCell>
        <mxCell id="MFXp9vrlhHnJbVwKKNNt-42" value="" style="group" vertex="1" connectable="0" parent="1">
          <mxGeometry x="864" y="832" width="296" height="208" as="geometry" />
        </mxCell>
        <mxCell id="MFXp9vrlhHnJbVwKKNNt-43" value="Edge-2" style="rounded=1;whiteSpace=wrap;fontSize=16;verticalAlign=top;arcSize=3;dashed=1;container=0;fillColor=none;" vertex="1" parent="MFXp9vrlhHnJbVwKKNNt-42">
          <mxGeometry width="296" height="208" as="geometry" />
        </mxCell>
        <mxCell id="MFXp9vrlhHnJbVwKKNNt-44" value="" style="group" vertex="1" connectable="0" parent="MFXp9vrlhHnJbVwKKNNt-42">
          <mxGeometry x="16" y="48" width="170" height="64" as="geometry" />
        </mxCell>
        <mxCell id="MFXp9vrlhHnJbVwKKNNt-45" value="Pod: &lt;b&gt;CNF&lt;/b&gt;" style="rounded=0;whiteSpace=wrap;html=1;align=left;verticalAlign=top;labelBorderColor=#9AC7BF;fontSize=12;container=0;fillColor=#b0e3e6;strokeColor=#0e8088;" vertex="1" parent="MFXp9vrlhHnJbVwKKNNt-44">
          <mxGeometry width="170" height="64" as="geometry" />
        </mxCell>
        <mxCell id="MFXp9vrlhHnJbVwKKNNt-46" value="net0: 172.16.70.29/24" style="rounded=0;whiteSpace=wrap;html=1;strokeColor=#82b366;container=0;align=left;fillColor=#FFFF99;fontSize=10;" vertex="1" parent="MFXp9vrlhHnJbVwKKNNt-44">
          <mxGeometry x="63.02371764319171" y="15.134454743852984" width="106.97289365248938" height="23.91096229145962" as="geometry" />
        </mxCell>
        <mxCell id="MFXp9vrlhHnJbVwKKNNt-47" value="net2: 10.10.70.29/24" style="rounded=0;whiteSpace=wrap;html=1;strokeColor=#82b366;container=0;align=left;fillColor=#99FF99;fontSize=10;" vertex="1" parent="MFXp9vrlhHnJbVwKKNNt-44">
          <mxGeometry x="63.02371764319171" y="40.08715064813669" width="106.97289365248938" height="23.91096229145962" as="geometry" />
        </mxCell>
        <mxCell id="MFXp9vrlhHnJbVwKKNNt-48" value="" style="group" vertex="1" connectable="0" parent="MFXp9vrlhHnJbVwKKNNt-42">
          <mxGeometry x="16" y="128" width="208" height="64" as="geometry" />
        </mxCell>
        <mxCell id="MFXp9vrlhHnJbVwKKNNt-49" value="Pod: &lt;b&gt;Hello-Host&lt;/b&gt;" style="rounded=0;whiteSpace=wrap;html=1;align=left;verticalAlign=top;labelBorderColor=#9AC7BF;fontSize=12;container=0;fillColor=#b0e3e6;strokeColor=#0e8088;" vertex="1" parent="MFXp9vrlhHnJbVwKKNNt-48">
          <mxGeometry width="170" height="64" as="geometry" />
        </mxCell>
        <mxCell id="MFXp9vrlhHnJbVwKKNNt-50" value="App Continer" style="rounded=0;whiteSpace=wrap;html=1;strokeColor=#82b366;container=0;align=left;fillColor=#FFFF99;fontSize=10;" vertex="1" parent="MFXp9vrlhHnJbVwKKNNt-48">
          <mxGeometry x="8" y="32" width="44" height="26" as="geometry" />
        </mxCell>
        <mxCell id="MFXp9vrlhHnJbVwKKNNt-51" value="Istio&lt;br style=&quot;font-size: 10px;&quot;&gt;proxy" style="rounded=0;whiteSpace=wrap;html=1;strokeColor=#82b366;container=0;align=left;fillColor=#FFFF99;fontSize=10;" vertex="1" parent="MFXp9vrlhHnJbVwKKNNt-48">
          <mxGeometry x="72" y="32" width="36" height="26" as="geometry" />
        </mxCell>
        <mxCell id="MFXp9vrlhHnJbVwKKNNt-52" style="edgeStyle=orthogonalEdgeStyle;rounded=0;orthogonalLoop=1;jettySize=auto;html=1;exitX=1;exitY=0.5;exitDx=0;exitDy=0;entryX=0;entryY=0.5;entryDx=0;entryDy=0;fontSize=12;strokeColor=#66B2FF;strokeWidth=1;startArrow=classic;startFill=1;shape=link;" edge="1" parent="MFXp9vrlhHnJbVwKKNNt-48" source="MFXp9vrlhHnJbVwKKNNt-50" target="MFXp9vrlhHnJbVwKKNNt-51">
          <mxGeometry x="-32" y="-16" as="geometry" />
        </mxCell>
        <mxCell id="MFXp9vrlhHnJbVwKKNNt-53" value="Istro Ingress" style="rounded=0;whiteSpace=wrap;html=1;strokeColor=#82b366;container=0;align=left;fillColor=#FFB570;fontSize=10;" vertex="1" parent="MFXp9vrlhHnJbVwKKNNt-48">
          <mxGeometry x="144" y="8" width="64" height="14.96" as="geometry" />
        </mxCell>
        <mxCell id="MFXp9vrlhHnJbVwKKNNt-55" style="edgeStyle=orthogonalEdgeStyle;rounded=0;orthogonalLoop=1;jettySize=auto;html=1;exitX=1;exitY=0.75;exitDx=0;exitDy=0;entryX=1;entryY=0.5;entryDx=0;entryDy=0;fontSize=10;startArrow=none;startFill=0;endArrow=classic;endFill=1;strokeWidth=2;strokeColor=#66B2FF;" edge="1" parent="MFXp9vrlhHnJbVwKKNNt-42" source="MFXp9vrlhHnJbVwKKNNt-46" target="MFXp9vrlhHnJbVwKKNNt-53">
          <mxGeometry relative="1" as="geometry" />
        </mxCell>
        <mxCell id="MFXp9vrlhHnJbVwKKNNt-56" value="" style="group" vertex="1" connectable="0" parent="1">
          <mxGeometry x="200" y="784" width="488" height="400" as="geometry" />
        </mxCell>
        <mxCell id="MFXp9vrlhHnJbVwKKNNt-1" value="service: &lt;b&gt;istio-ingressgateway&lt;/b&gt;&lt;br style=&quot;font-size: 12px&quot;&gt;nodeport:&amp;nbsp;&lt;br&gt;80:31921/HTTP" style="rounded=0;whiteSpace=wrap;html=1;align=left;verticalAlign=top;labelBorderColor=none;fontSize=12;container=0;fillColor=#e1d5e7;strokeColor=#9673a6;" vertex="1" parent="MFXp9vrlhHnJbVwKKNNt-56">
          <mxGeometry width="488" height="248" as="geometry" />
        </mxCell>
        <mxCell id="dr2jXw1xH-RzFGX_rYgQ-80" value="gateways: &lt;b&gt;hub-hello-host-gateway&lt;/b&gt;&lt;br style=&quot;font-size: 12px&quot;&gt;selector:&lt;br&gt;&amp;nbsp; &amp;nbsp; istio: ingressgateway" style="rounded=0;whiteSpace=wrap;html=1;align=left;verticalAlign=top;labelBorderColor=none;fontSize=12;container=0;fillColor=#ffe6cc;strokeColor=#d79b00;" parent="MFXp9vrlhHnJbVwKKNNt-56" vertex="1">
          <mxGeometry x="24" y="56" width="416" height="184" as="geometry" />
        </mxCell>
        <mxCell id="dr2jXw1xH-RzFGX_rYgQ-73" value="" style="group;fillColor=#e1d5e7;strokeColor=#9673a6;container=0;" parent="MFXp9vrlhHnJbVwKKNNt-56" vertex="1" connectable="0">
          <mxGeometry x="40" y="120" width="184" height="111" as="geometry" />
        </mxCell>
        <mxCell id="dr2jXw1xH-RzFGX_rYgQ-71" value="virtualSvc: &lt;b&gt;edge1-hello-host&lt;/b&gt;&lt;br style=&quot;font-size: 12px&quot;&gt;host: hello-host.edge1.com" style="rounded=0;whiteSpace=wrap;html=1;align=left;verticalAlign=top;labelBorderColor=none;fontSize=12;container=0;fillColor=#fff2cc;strokeColor=#d6b656;" parent="MFXp9vrlhHnJbVwKKNNt-56" vertex="1">
          <mxGeometry x="32" y="120" width="192" height="111" as="geometry" />
        </mxCell>
        <mxCell id="dr2jXw1xH-RzFGX_rYgQ-72" value="Service: &lt;b&gt;edge1-hello-host&lt;/b&gt;&lt;br style=&quot;font-size: 12px&quot;&gt;app=hub-cnf&lt;br&gt;targertPort: 10011" style="rounded=0;whiteSpace=wrap;html=1;align=left;verticalAlign=top;labelBorderColor=none;fontSize=12;container=0;fillColor=#f8cecc;strokeColor=#b85450;" parent="MFXp9vrlhHnJbVwKKNNt-56" vertex="1">
          <mxGeometry x="40" y="163" width="152" height="60" as="geometry" />
        </mxCell>
        <mxCell id="dr2jXw1xH-RzFGX_rYgQ-75" value="virtualSvc: &lt;b&gt;edge2-hello-host&lt;/b&gt;&lt;br style=&quot;font-size: 12px&quot;&gt;host: hello-host.edge2.com" style="rounded=0;whiteSpace=wrap;html=1;align=left;verticalAlign=top;labelBorderColor=none;fontSize=12;container=0;fillColor=#fff2cc;strokeColor=#d6b656;" parent="MFXp9vrlhHnJbVwKKNNt-56" vertex="1">
          <mxGeometry x="240" y="120" width="192" height="111" as="geometry" />
        </mxCell>
        <mxCell id="dr2jXw1xH-RzFGX_rYgQ-76" value="Service: &lt;b&gt;edge2-hello-host&lt;/b&gt;&lt;br style=&quot;font-size: 12px&quot;&gt;app=hub-cnf&lt;br&gt;targertPort: 10012" style="rounded=0;whiteSpace=wrap;html=1;align=left;verticalAlign=top;labelBorderColor=none;fontSize=12;container=0;fillColor=#f8cecc;strokeColor=#b85450;" parent="MFXp9vrlhHnJbVwKKNNt-56" vertex="1">
          <mxGeometry x="248" y="163" width="152" height="60" as="geometry" />
        </mxCell>
        <mxCell id="MFXp9vrlhHnJbVwKKNNt-59" style="edgeStyle=orthogonalEdgeStyle;rounded=0;orthogonalLoop=1;jettySize=auto;html=1;exitX=1;exitY=0.5;exitDx=0;exitDy=0;entryX=0;entryY=0.5;entryDx=0;entryDy=0;fontSize=10;startArrow=none;startFill=0;endArrow=classic;endFill=1;strokeWidth=2;strokeColor=#66B2FF;" edge="1" parent="1" source="MFXp9vrlhHnJbVwKKNNt-29" target="MFXp9vrlhHnJbVwKKNNt-34">
          <mxGeometry relative="1" as="geometry">
            <Array as="points">
              <mxPoint x="752" y="716" />
              <mxPoint x="752" y="684" />
            </Array>
          </mxGeometry>
        </mxCell>
        <mxCell id="MFXp9vrlhHnJbVwKKNNt-60" style="edgeStyle=orthogonalEdgeStyle;rounded=0;orthogonalLoop=1;jettySize=auto;html=1;exitX=1;exitY=0.5;exitDx=0;exitDy=0;entryX=0;entryY=0.5;entryDx=0;entryDy=0;fontSize=10;startArrow=none;startFill=0;endArrow=classic;endFill=1;strokeWidth=2;strokeColor=#66B2FF;" edge="1" parent="1" source="MFXp9vrlhHnJbVwKKNNt-29" target="MFXp9vrlhHnJbVwKKNNt-47">
          <mxGeometry relative="1" as="geometry">
            <Array as="points">
              <mxPoint x="752" y="716" />
              <mxPoint x="752" y="932" />
            </Array>
          </mxGeometry>
        </mxCell>
        <mxCell id="MFXp9vrlhHnJbVwKKNNt-64" style="edgeStyle=orthogonalEdgeStyle;rounded=0;orthogonalLoop=1;jettySize=auto;html=1;exitX=1;exitY=0.5;exitDx=0;exitDy=0;entryX=0.75;entryY=1;entryDx=0;entryDy=0;fontSize=10;startArrow=none;startFill=0;endArrow=classic;endFill=1;strokeColor=#66B2FF;strokeWidth=2;" edge="1" parent="1" source="dr2jXw1xH-RzFGX_rYgQ-76" target="MFXp9vrlhHnJbVwKKNNt-29">
          <mxGeometry relative="1" as="geometry" />
        </mxCell>
        <mxCell id="MFXp9vrlhHnJbVwKKNNt-66" style="edgeStyle=orthogonalEdgeStyle;rounded=0;orthogonalLoop=1;jettySize=auto;html=1;exitX=0.75;exitY=1;exitDx=0;exitDy=0;entryX=0.75;entryY=1;entryDx=0;entryDy=0;fontSize=10;startArrow=none;startFill=0;endArrow=classic;endFill=1;strokeColor=#66B2FF;strokeWidth=2;" edge="1" parent="1" source="dr2jXw1xH-RzFGX_rYgQ-72" target="MFXp9vrlhHnJbVwKKNNt-29">
          <mxGeometry relative="1" as="geometry" />
        </mxCell>
        <mxCell id="MFXp9vrlhHnJbVwKKNNt-67" style="edgeStyle=orthogonalEdgeStyle;rounded=0;orthogonalLoop=1;jettySize=auto;html=1;exitX=1;exitY=0.75;exitDx=0;exitDy=0;fontSize=10;startArrow=none;startFill=0;endArrow=classic;endFill=1;strokeColor=#66B2FF;strokeWidth=2;" edge="1" parent="1" source="MFXp9vrlhHnJbVwKKNNt-13" target="MFXp9vrlhHnJbVwKKNNt-1">
          <mxGeometry relative="1" as="geometry" />
        </mxCell>
      </root>
    </mxGraphModel>
  </diagram>
</mxfile>
